<?xml version="1.0" encoding="UTF-8"?>
<svg id="Layer_2" data-name="Layer 2" xmlns="http://www.w3.org/2000/svg" viewBox="0 0 870.75 196.71">
  <defs>
    <style>
      .cls-1, .cls-2 {
        fill: #8fcc92;
      }

      .cls-1, .cls-3 {
        stroke-width: 0px;
      }

      .cls-4 {
        letter-spacing: 0em;
      }

      .cls-5 {
        letter-spacing: -.04em;
      }

      .cls-2 {
        font-family: ChalkboardSE-Light, 'Chalkboard SE';
        font-size: 53.62px;
        font-weight: 300;
      }

      .cls-3 {
        fill: #231f20;
      }
    </style>
  </defs>
  <g id="Layer_1-2" data-name="Layer 1">
    <text class="cls-2" transform="translate(727.85 141.08)"><tspan class="cls-5" x="0" y="0">y</tspan><tspan class="cls-4" x="26.72" y="0">a</tspan><tspan x="55.51" y="0">p</tspan></text>
    <path class="cls-1" d="M865.35,54.56c-2.76-2.74-6.22-4.5-9.97-5.13v-18.7c0-1.21-.71-2.31-1.81-2.8-1.09-.5-2.38-.31-3.29.48l-23.72,20.76h-35.73v-9.22c0-10.17-8.27-18.44-18.44-18.44h-54.17s-23.72-20.76-23.72-20.76c-.91-.79-2.2-.98-3.29-.48-1.1.5-1.81,1.59-1.81,2.8v18.7c-3.75.63-7.21,2.4-9.99,5.15-3.47,3.5-5.38,8.14-5.38,13.04v52.25c0,10.17,8.27,18.44,18.44,18.44h18.44v46.11c0,9.12,6.65,16.72,15.37,18.19v18.7c0,1.21.91,3.07,3.07,3.07.73,0,1.45-.26,2.02-.76l23.72-20.76h54.17c10.17,0,18.44-8.27,18.44-18.44v-21.52h24.59c10.17,0,18.44-8.27,18.44-18.44v-49.18c0-4.9-1.91-9.54-5.4-13.06h0ZM711.2,104.5h-18.72c-6.78,0-12.29-5.52-12.29-12.29v-52.25c0-3.27,1.28-6.38,3.57-8.7,2.35-2.32,5.44-3.6,8.72-3.6,1.7,0,3.07-1.38,3.07-3.07v-14.74l19.49,17.06c.56.49,1.28.76,2.02.76h55.33c6.78,0,12.29,5.52,12.29,12.29v9.22h-12.29c-10.17,0-18.44,8.27-18.44,18.44v21.52h-24.59c-9.12,0-16.69,6.66-18.17,15.37h0ZM821.57,156.75c0,6.78-5.52,12.29-12.29,12.29h-55.33c-.75,0-1.47.27-2.02.76l-19.49,17.06v-14.74c0-1.7-1.38-3.07-3.07-3.07-6.78,0-12.29-5.52-12.29-12.29v-49.18c0-6.78,5.52-12.29,12.29-12.29h79.91c6.78,0,12.29,5.52,12.29,12.29v49.18h0Z"/>
    <g>
      <path class="cls-3" d="M37.38,36.78c0,2.33.07,4.25.21,5.74h-1.61c-.37-3.59-.84-6.27-1.4-8.02s-1.54-3.03-2.94-3.85c-1.4-.82-3.55-1.23-6.44-1.23h-4.41c-1.68,0-2.91.13-3.67.39-.77.26-1.3.78-1.58,1.57-.28.79-.42,2.08-.42,3.85v17.22h5.11c1.63,0,2.89-.39,3.78-1.16.89-.77,1.48-1.68,1.79-2.73.3-1.05.55-2.37.73-3.95l.21-1.4h1.61c-.14,1.96-.21,4.15-.21,6.58v3.36c0,2.38.14,5.69.42,9.94h-1.61c-.05-.33-.19-1.46-.42-3.4-.23-1.94-.88-3.4-1.92-4.38s-2.51-1.47-4.38-1.47h-5.11v16.1c0,1.77.19,3.06.56,3.85.37.79,1.03,1.33,1.96,1.61.93.28,2.45.47,4.55.56v1.4c-2.43-.14-5.86-.21-10.29-.21-4.01,0-7,.07-8.96.21v-1.4c1.68-.09,2.91-.28,3.68-.56.77-.28,1.29-.82,1.57-1.61.28-.79.42-2.08.42-3.85v-34.72c0-1.77-.14-3.06-.42-3.85-.28-.79-.81-1.33-1.57-1.61-.77-.28-2-.47-3.68-.56v-1.4c4.57.14,11.34.21,20.3.21,6.86,0,11.74-.07,14.63-.21-.33,3.31-.49,6.3-.49,8.96Z"/>
      <path class="cls-3" d="M68.21,41.96c1.19,1.07,1.79,2.38,1.79,3.92,0,1.21-.36,2.25-1.08,3.12-.72.86-1.69,1.29-2.9,1.29-1.03,0-1.9-.33-2.62-.98-.72-.65-1.08-1.54-1.08-2.66,0-1.54.79-2.8,2.38-3.78-.33-.47-.82-.7-1.47-.7-1.82,0-3.48.71-4.97,2.13-1.49,1.42-2.66,3.16-3.5,5.22-.84,2.05-1.26,3.99-1.26,5.81v14.84c0,2.15.62,3.64,1.85,4.48,1.24.84,3.09,1.26,5.56,1.26v1.47l-1.68-.07c-4.76-.14-7.79-.21-9.1-.21-1.21,0-3.97.09-8.26.28v-1.47c1.96,0,3.34-.36,4.13-1.08.79-.72,1.19-2.04,1.19-3.96v-21.91c0-2.15-.4-3.71-1.19-4.69-.79-.98-2.17-1.47-4.13-1.47v-1.47c1.49.14,2.94.21,4.34.21,2.94,0,5.37-.33,7.28-.98v8.75c.84-2.33,2.18-4.41,4.02-6.23,1.84-1.82,3.89-2.73,6.12-2.73,1.87,0,3.4.54,4.58,1.61Z"/>
      <path class="cls-3" d="M100.27,45.07c2.92,3.15,4.38,7.92,4.38,14.31s-1.46,11.15-4.38,14.28c-2.92,3.13-6.76,4.69-11.52,4.69s-8.6-1.56-11.52-4.69c-2.92-3.13-4.38-7.89-4.38-14.28s1.46-11.16,4.38-14.31c2.92-3.15,6.76-4.72,11.52-4.72s8.6,1.57,11.52,4.72ZM82.11,46.05c-1.63,2.87-2.45,7.32-2.45,13.33s.82,10.45,2.45,13.3c1.63,2.85,3.85,4.27,6.65,4.27s5.02-1.42,6.65-4.27c1.63-2.85,2.45-7.28,2.45-13.3s-.82-10.46-2.45-13.33c-1.63-2.87-3.85-4.3-6.65-4.3s-5.02,1.44-6.65,4.3Z"/>
      <path class="cls-3" d="M164.92,74.82c.79.72,2.17,1.08,4.13,1.08v1.47c-4.29-.19-7.09-.28-8.4-.28s-3.92.09-7.84.28v-1.47c1.73,0,2.93-.36,3.6-1.08s1.02-2.04,1.02-3.96v-20.23c0-1.77-.11-3.21-.32-4.3-.21-1.1-.7-2-1.47-2.7-.77-.7-1.95-1.05-3.54-1.05-1.77,0-3.38.56-4.83,1.68-1.45,1.12-2.58,2.65-3.39,4.58-.82,1.94-1.23,4.07-1.23,6.4v15.61c0,1.91.4,3.23,1.19,3.96.79.72,2.17,1.08,4.13,1.08v1.47c-4.29-.19-7.09-.28-8.4-.28s-3.92.09-7.84.28v-1.47c1.73,0,2.93-.36,3.61-1.08.68-.72,1.01-2.04,1.01-3.96v-20.23c0-1.77-.1-3.21-.31-4.3-.21-1.1-.7-2-1.47-2.7-.77-.7-1.95-1.05-3.54-1.05-1.77,0-3.38.56-4.83,1.68-1.45,1.12-2.58,2.66-3.39,4.62-.82,1.96-1.22,4.11-1.22,6.44v15.54c0,1.91.34,3.23,1.01,3.96.68.72,1.88,1.08,3.6,1.08v1.47c-3.92-.19-6.53-.28-7.84-.28s-4.11.09-8.4.28v-1.47c1.96,0,3.34-.36,4.13-1.08.79-.72,1.19-2.04,1.19-3.96v-21.91c0-2.15-.4-3.71-1.19-4.69-.79-.98-2.17-1.47-4.13-1.47v-1.47c1.49.14,2.94.21,4.34.21,2.94,0,5.37-.33,7.28-.98v8.26c1.12-2.89,2.71-5.03,4.76-6.4,2.05-1.38,4.29-2.06,6.72-2.06,3.17,0,5.6.89,7.28,2.66,1.17,1.21,1.89,3.08,2.17,5.6,1.17-2.94,2.78-5.05,4.83-6.33,2.05-1.28,4.32-1.92,6.79-1.92,3.17,0,5.6.89,7.28,2.66.84.93,1.43,2.12,1.78,3.57.35,1.45.53,3.31.53,5.6v18.69c0,1.91.4,3.23,1.19,3.96Z"/>
      <path class="cls-3" d="M199.92,41.4h10.36v1.4h-10.36v27.09c0,2.1.38,3.62,1.16,4.55.77.93,1.88,1.4,3.33,1.4s2.68-.58,3.71-1.75c1.03-1.17,1.89-3.08,2.59-5.74l1.4.35c-1.17,6.44-4.2,9.66-9.1,9.66-1.59,0-2.89-.19-3.92-.56-1.03-.37-1.94-.96-2.73-1.75-1.03-1.03-1.74-2.29-2.14-3.78-.4-1.49-.59-3.5-.59-6.02v-23.45h-6.72v-1.4h6.72v-10.71c2.61-.09,4.71-.42,6.3-.98v11.69Z"/>
      <path class="cls-3" d="M224.42,48.75c1.17-2.94,2.79-5.08,4.87-6.41,2.08-1.33,4.42-1.99,7.04-1.99,3.27,0,5.74.89,7.42,2.66.89.93,1.52,2.1,1.89,3.5.37,1.4.56,3.29.56,5.67v18.69c0,1.91.4,3.23,1.19,3.96.79.72,2.17,1.08,4.13,1.08v1.47c-4.29-.19-7.09-.28-8.4-.28s-3.92.09-7.84.28v-1.47c1.73,0,2.93-.36,3.6-1.08s1.02-2.04,1.02-3.96v-20.23c0-2.61-.37-4.61-1.12-5.98-.75-1.38-2.26-2.06-4.55-2.06-1.91,0-3.61.54-5.08,1.61-1.47,1.07-2.62,2.58-3.46,4.52-.84,1.94-1.26,4.12-1.26,6.54v15.61c0,1.91.34,3.23,1.02,3.96.68.72,1.88,1.08,3.6,1.08v1.47c-3.92-.19-6.53-.28-7.84-.28s-4.11.09-8.4.28v-1.47c1.96,0,3.34-.36,4.13-1.08.79-.72,1.19-2.04,1.19-3.96V30.97c0-2.15-.4-3.71-1.19-4.69-.79-.98-2.17-1.47-4.13-1.47v-1.47c1.49.14,2.94.21,4.34.21,2.94,0,5.37-.33,7.28-.98v26.18Z"/>
      <path class="cls-3" d="M284.97,68.98c-.84,2.57-2.42,4.77-4.73,6.62-2.31,1.84-5.1,2.77-8.36,2.77s-6.18-.76-8.61-2.28c-2.43-1.52-4.28-3.64-5.57-6.37-1.28-2.73-1.92-5.89-1.92-9.48,0-4.06.65-7.58,1.96-10.57,1.31-2.99,3.15-5.28,5.53-6.9,2.38-1.61,5.16-2.41,8.33-2.41,4.2,0,7.43,1.27,9.7,3.81,2.26,2.54,3.39,6.4,3.39,11.58h-21.91c-.14,1.31-.21,2.8-.21,4.48,0,3.08.5,5.76,1.5,8.05,1,2.29,2.33,4.05,3.99,5.28,1.66,1.24,3.4,1.86,5.21,1.86,2.24,0,4.22-.54,5.95-1.61,1.73-1.07,3.17-2.87,4.34-5.39l1.4.56ZM265.65,44.9c-1.59,2.15-2.57,5.32-2.94,9.52h15.26c.09-3.64-.43-6.67-1.58-9.1-1.14-2.43-2.83-3.64-5.08-3.64s-4.08,1.07-5.67,3.22Z"/>
      <path class="cls-3" d="M324.45,41.12c1.31.51,2.36,1.12,3.15,1.82.51.37.93.56,1.26.56.84,0,1.35-1.03,1.54-3.08h1.61c-.19,2.29-.28,6.25-.28,11.9h-1.61c-.51-3.08-1.5-5.62-2.97-7.63-1.47-2.01-3.65-3.01-6.54-3.01-1.68,0-3.06.48-4.13,1.44-1.07.96-1.61,2.27-1.61,3.96s.56,3,1.68,4.1c1.12,1.1,2.92,2.42,5.39,3.96.42.23,1.05.63,1.89,1.19,2.15,1.4,3.87,2.64,5.18,3.71,1.31,1.07,2.37,2.31,3.19,3.71.82,1.4,1.22,3.01,1.22,4.83,0,3.08-1.16,5.48-3.46,7.21-2.31,1.73-5.15,2.59-8.5,2.59-2.1,0-3.94-.33-5.53-.98-1.03-.51-1.98-1.14-2.87-1.89-.19-.19-.4-.28-.63-.28-.33,0-.62.23-.88.7-.26.47-.46,1.12-.59,1.96h-1.61c.19-2.66.28-7.33.28-14h1.61c.51,4.39,1.45,7.67,2.8,9.83,1.35,2.17,3.66,3.25,6.93,3.25,1.63,0,3.08-.54,4.34-1.61,1.26-1.07,1.89-2.75,1.89-5.04,0-1.82-.62-3.36-1.85-4.62-1.24-1.26-3.25-2.78-6.05-4.55-2.29-1.45-4.05-2.64-5.29-3.57-1.24-.93-2.28-2.08-3.12-3.43-.84-1.35-1.26-2.94-1.26-4.76,0-2.94.98-5.18,2.94-6.72,1.96-1.54,4.43-2.31,7.42-2.31,1.68,0,3.17.26,4.48.77Z"/>
      <path class="cls-3" d="M341.56,75.66c-1.42-1.47-2.13-3.51-2.13-6.12,0-2.1.57-3.83,1.71-5.18,1.14-1.35,2.5-2.43,4.06-3.22,1.56-.79,3.63-1.63,6.2-2.52,2.61-.89,4.55-1.7,5.81-2.45,1.26-.75,1.89-1.75,1.89-3.01v-4.34c0-2.71-.57-4.56-1.72-5.56-1.14-1-2.74-1.5-4.79-1.5-3.27,0-5.58.84-6.93,2.52.93.23,1.71.72,2.34,1.47.63.75.95,1.68.95,2.8s-.37,2.09-1.12,2.76c-.75.68-1.7,1.02-2.87,1.02-1.31,0-2.29-.41-2.94-1.23-.65-.82-.98-1.81-.98-2.97s.27-2.05.8-2.8c.54-.75,1.34-1.49,2.42-2.24,1.12-.79,2.54-1.45,4.27-1.96,1.73-.51,3.62-.77,5.67-.77,3.64,0,6.39.86,8.26,2.59,1.17,1.07,1.95,2.37,2.35,3.88.4,1.52.59,3.51.59,5.99v19.46c0,1.17.16,2.01.49,2.52.33.51.89.77,1.68.77.56,0,1.08-.13,1.58-.38.49-.26,1.01-.62,1.57-1.08l.77,1.19c-1.21.93-2.25,1.6-3.12,1.99-.86.4-1.95.6-3.25.6-2.24,0-3.8-.56-4.69-1.68-.89-1.12-1.33-2.64-1.33-4.55-1.4,2.33-3.01,3.96-4.83,4.87-1.82.91-3.87,1.37-6.16,1.37-2.94,0-5.12-.74-6.54-2.21ZM359.1,69.75v-13.72c-.42.65-1,1.19-1.75,1.61-.75.42-1.89.98-3.43,1.68-1.77.75-3.21,1.46-4.3,2.14-1.1.68-2.04,1.6-2.83,2.76-.79,1.17-1.19,2.66-1.19,4.48,0,2.1.51,3.69,1.54,4.76,1.03,1.07,2.38,1.61,4.06,1.61,3.08,0,5.72-1.77,7.91-5.32Z"/>
      <path class="cls-3" d="M428.53,74.82c.79.72,2.17,1.08,4.13,1.08v1.47c-4.29-.19-7.09-.28-8.4-.28s-3.92.09-7.84.28v-1.47c1.73,0,2.93-.36,3.6-1.08s1.02-2.04,1.02-3.96v-20.23c0-1.77-.11-3.21-.32-4.3-.21-1.1-.7-2-1.47-2.7-.77-.7-1.95-1.05-3.54-1.05-1.77,0-3.38.56-4.83,1.68-1.45,1.12-2.58,2.65-3.39,4.58-.82,1.94-1.23,4.07-1.23,6.4v15.61c0,1.91.4,3.23,1.19,3.96.79.72,2.17,1.08,4.13,1.08v1.47c-4.29-.19-7.09-.28-8.4-.28s-3.92.09-7.84.28v-1.47c1.73,0,2.93-.36,3.61-1.08.68-.72,1.01-2.04,1.01-3.96v-20.23c0-1.77-.1-3.21-.31-4.3-.21-1.1-.7-2-1.47-2.7-.77-.7-1.95-1.05-3.54-1.05-1.77,0-3.38.56-4.83,1.68-1.45,1.12-2.58,2.66-3.39,4.62-.82,1.96-1.22,4.11-1.22,6.44v15.54c0,1.91.34,3.23,1.01,3.96.68.72,1.88,1.08,3.6,1.08v1.47c-3.92-.19-6.53-.28-7.84-.28s-4.11.09-8.4.28v-1.47c1.96,0,3.34-.36,4.13-1.08.79-.72,1.19-2.04,1.19-3.96v-21.91c0-2.15-.4-3.71-1.19-4.69-.79-.98-2.17-1.47-4.13-1.47v-1.47c1.49.14,2.94.21,4.34.21,2.94,0,5.37-.33,7.28-.98v8.26c1.12-2.89,2.71-5.03,4.76-6.4,2.05-1.38,4.29-2.06,6.72-2.06,3.17,0,5.6.89,7.28,2.66,1.17,1.21,1.89,3.08,2.17,5.6,1.17-2.94,2.78-5.05,4.83-6.33,2.05-1.28,4.32-1.92,6.79-1.92,3.17,0,5.6.89,7.28,2.66.84.93,1.43,2.12,1.78,3.57.35,1.45.53,3.31.53,5.6v18.69c0,1.91.4,3.23,1.19,3.96Z"/>
      <path class="cls-3" d="M466.12,68.98c-.84,2.57-2.42,4.77-4.73,6.62-2.31,1.84-5.1,2.77-8.36,2.77s-6.18-.76-8.61-2.28c-2.43-1.52-4.28-3.64-5.57-6.37-1.28-2.73-1.92-5.89-1.92-9.48,0-4.06.65-7.58,1.96-10.57,1.31-2.99,3.15-5.28,5.53-6.9,2.38-1.61,5.16-2.41,8.33-2.41,4.2,0,7.43,1.27,9.7,3.81,2.26,2.54,3.39,6.4,3.39,11.58h-21.91c-.14,1.31-.21,2.8-.21,4.48,0,3.08.5,5.76,1.5,8.05,1,2.29,2.33,4.05,3.99,5.28,1.66,1.24,3.4,1.86,5.21,1.86,2.24,0,4.22-.54,5.95-1.61,1.73-1.07,3.17-2.87,4.34-5.39l1.4.56ZM446.8,44.9c-1.59,2.15-2.57,5.32-2.94,9.52h15.26c.09-3.64-.43-6.67-1.58-9.1-1.14-2.43-2.83-3.64-5.08-3.64s-4.08,1.07-5.67,3.22Z"/>
      <path class="cls-3" d="M498.95,41.4h10.36v1.4h-10.36v27.09c0,2.1.38,3.62,1.16,4.55.77.93,1.88,1.4,3.33,1.4s2.68-.58,3.71-1.75c1.03-1.17,1.89-3.08,2.59-5.74l1.4.35c-1.17,6.44-4.2,9.66-9.1,9.66-1.59,0-2.89-.19-3.92-.56-1.03-.37-1.94-.96-2.73-1.75-1.03-1.03-1.74-2.29-2.14-3.78-.4-1.49-.59-3.5-.59-6.02v-23.45h-6.72v-1.4h6.72v-10.71c2.61-.09,4.71-.42,6.3-.98v11.69Z"/>
      <path class="cls-3" d="M542.84,68.98c-.84,2.57-2.42,4.77-4.73,6.62-2.31,1.84-5.1,2.77-8.36,2.77s-6.18-.76-8.61-2.28c-2.43-1.52-4.28-3.64-5.57-6.37-1.28-2.73-1.92-5.89-1.92-9.48,0-4.06.65-7.58,1.96-10.57,1.31-2.99,3.15-5.28,5.53-6.9,2.38-1.61,5.16-2.41,8.33-2.41,4.2,0,7.43,1.27,9.7,3.81,2.26,2.54,3.39,6.4,3.39,11.58h-21.91c-.14,1.31-.21,2.8-.21,4.48,0,3.08.5,5.76,1.5,8.05,1,2.29,2.33,4.05,3.99,5.28,1.66,1.24,3.4,1.86,5.21,1.86,2.24,0,4.22-.54,5.95-1.61,1.73-1.07,3.17-2.87,4.34-5.39l1.4.56ZM523.52,44.9c-1.59,2.15-2.57,5.32-2.94,9.52h15.26c.09-3.64-.43-6.67-1.58-9.1-1.14-2.43-2.83-3.64-5.08-3.64s-4.08,1.07-5.67,3.22Z"/>
      <path class="cls-3" d="M550.72,75.66c-1.42-1.47-2.13-3.51-2.13-6.12,0-2.1.57-3.83,1.71-5.18,1.14-1.35,2.5-2.43,4.06-3.22,1.56-.79,3.63-1.63,6.2-2.52,2.61-.89,4.55-1.7,5.81-2.45,1.26-.75,1.89-1.75,1.89-3.01v-4.34c0-2.71-.57-4.56-1.72-5.56-1.14-1-2.74-1.5-4.79-1.5-3.27,0-5.58.84-6.93,2.52.93.23,1.71.72,2.34,1.47.63.75.95,1.68.95,2.8s-.37,2.09-1.12,2.76c-.75.68-1.7,1.02-2.87,1.02-1.31,0-2.29-.41-2.94-1.23-.65-.82-.98-1.81-.98-2.97s.27-2.05.8-2.8c.54-.75,1.34-1.49,2.42-2.24,1.12-.79,2.54-1.45,4.27-1.96,1.73-.51,3.62-.77,5.67-.77,3.64,0,6.39.86,8.26,2.59,1.17,1.07,1.95,2.37,2.35,3.88.4,1.52.59,3.51.59,5.99v19.46c0,1.17.16,2.01.49,2.52.33.51.89.77,1.68.77.56,0,1.08-.13,1.58-.38.49-.26,1.01-.62,1.57-1.08l.77,1.19c-1.21.93-2.25,1.6-3.12,1.99-.86.4-1.95.6-3.25.6-2.24,0-3.8-.56-4.69-1.68-.89-1.12-1.33-2.64-1.33-4.55-1.4,2.33-3.01,3.96-4.83,4.87-1.82.91-3.87,1.37-6.16,1.37-2.94,0-5.12-.74-6.54-2.21ZM568.25,69.75v-13.72c-.42.65-1,1.19-1.75,1.61-.75.42-1.89.98-3.43,1.68-1.77.75-3.21,1.46-4.3,2.14-1.1.68-2.04,1.6-2.83,2.76-.79,1.17-1.19,2.66-1.19,4.48,0,2.1.51,3.69,1.54,4.76,1.03,1.07,2.38,1.61,4.06,1.61,3.08,0,5.72-1.77,7.91-5.32Z"/>
      <path class="cls-3" d="M637.69,74.82c.79.72,2.17,1.08,4.13,1.08v1.47c-4.29-.19-7.09-.28-8.4-.28s-3.92.09-7.84.28v-1.47c1.73,0,2.93-.36,3.6-1.08s1.02-2.04,1.02-3.96v-20.23c0-1.77-.11-3.21-.32-4.3-.21-1.1-.7-2-1.47-2.7-.77-.7-1.95-1.05-3.54-1.05-1.77,0-3.38.56-4.83,1.68-1.45,1.12-2.58,2.65-3.39,4.58-.82,1.94-1.23,4.07-1.23,6.4v15.61c0,1.91.4,3.23,1.19,3.96.79.72,2.17,1.08,4.13,1.08v1.47c-4.29-.19-7.09-.28-8.4-.28s-3.92.09-7.84.28v-1.47c1.73,0,2.93-.36,3.61-1.08.68-.72,1.01-2.04,1.01-3.96v-20.23c0-1.77-.1-3.21-.31-4.3-.21-1.1-.7-2-1.47-2.7-.77-.7-1.95-1.05-3.54-1.05-1.77,0-3.38.56-4.83,1.68-1.45,1.12-2.58,2.66-3.39,4.62-.82,1.96-1.22,4.11-1.22,6.44v15.54c0,1.91.34,3.23,1.01,3.96.68.72,1.88,1.08,3.6,1.08v1.47c-3.92-.19-6.53-.28-7.84-.28s-4.11.09-8.4.28v-1.47c1.96,0,3.34-.36,4.13-1.08.79-.72,1.19-2.04,1.19-3.96v-21.91c0-2.15-.4-3.71-1.19-4.69-.79-.98-2.17-1.47-4.13-1.47v-1.47c1.49.14,2.94.21,4.34.21,2.94,0,5.37-.33,7.28-.98v8.26c1.12-2.89,2.71-5.03,4.76-6.4,2.05-1.38,4.29-2.06,6.72-2.06,3.17,0,5.6.89,7.28,2.66,1.17,1.21,1.89,3.08,2.17,5.6,1.17-2.94,2.78-5.05,4.83-6.33,2.05-1.28,4.32-1.92,6.79-1.92,3.17,0,5.6.89,7.28,2.66.84.93,1.43,2.12,1.78,3.57.35,1.45.53,3.31.53,5.6v18.69c0,1.91.4,3.23,1.19,3.96Z"/>
      <path class="cls-3" d="M116.97,125.4h10.36v1.4h-10.36v27.09c0,2.1.38,3.62,1.16,4.55.77.93,1.88,1.4,3.33,1.4s2.68-.58,3.71-1.75c1.03-1.17,1.89-3.08,2.59-5.74l1.4.35c-1.17,6.44-4.2,9.66-9.1,9.66-1.59,0-2.89-.19-3.92-.56-1.03-.37-1.94-.96-2.73-1.75-1.03-1.03-1.74-2.29-2.14-3.78-.4-1.49-.59-3.5-.59-6.02v-23.45h-6.72v-1.4h6.72v-10.71c2.61-.09,4.71-.42,6.3-.98v11.69Z"/>
      <path class="cls-3" d="M141.47,132.75c1.17-2.94,2.79-5.08,4.87-6.41,2.08-1.33,4.42-2,7.04-2,3.27,0,5.74.89,7.42,2.66.89.93,1.52,2.1,1.89,3.5.37,1.4.56,3.29.56,5.67v18.69c0,1.91.4,3.23,1.19,3.96.79.72,2.17,1.08,4.13,1.08v1.47c-4.29-.19-7.09-.28-8.4-.28s-3.92.09-7.84.28v-1.47c1.73,0,2.93-.36,3.6-1.08s1.02-2.04,1.02-3.96v-20.23c0-2.61-.37-4.61-1.12-5.98-.75-1.38-2.26-2.07-4.55-2.07-1.91,0-3.61.54-5.08,1.61-1.47,1.07-2.62,2.58-3.46,4.51-.84,1.94-1.26,4.12-1.26,6.54v15.61c0,1.91.34,3.23,1.02,3.96.68.72,1.88,1.08,3.6,1.08v1.47c-3.92-.19-6.53-.28-7.84-.28s-4.11.09-8.4.28v-1.47c1.96,0,3.34-.36,4.13-1.08.79-.72,1.19-2.04,1.19-3.96v-39.9c0-2.15-.4-3.71-1.19-4.69-.79-.98-2.17-1.47-4.13-1.47v-1.47c1.49.14,2.94.21,4.34.21,2.94,0,5.37-.33,7.28-.98v26.18Z"/>
      <path class="cls-3" d="M174.47,159.66c-1.42-1.47-2.13-3.51-2.13-6.12,0-2.1.57-3.83,1.71-5.18,1.14-1.35,2.5-2.43,4.06-3.22,1.56-.79,3.63-1.63,6.2-2.52,2.61-.89,4.55-1.7,5.81-2.45,1.26-.75,1.89-1.75,1.89-3.01v-4.34c0-2.71-.57-4.56-1.72-5.57-1.14-1-2.74-1.5-4.79-1.5-3.27,0-5.58.84-6.93,2.52.93.23,1.71.72,2.34,1.47.63.75.95,1.68.95,2.8s-.37,2.09-1.12,2.76c-.75.68-1.7,1.02-2.87,1.02-1.31,0-2.29-.41-2.94-1.23-.65-.82-.98-1.81-.98-2.97s.27-2.05.8-2.8c.54-.75,1.34-1.49,2.42-2.24,1.12-.79,2.54-1.45,4.27-1.96,1.73-.51,3.62-.77,5.67-.77,3.64,0,6.39.86,8.26,2.59,1.17,1.07,1.95,2.37,2.35,3.89.4,1.52.59,3.51.59,5.98v19.46c0,1.17.16,2.01.49,2.52.33.51.89.77,1.68.77.56,0,1.08-.13,1.58-.38.49-.26,1.01-.62,1.57-1.08l.77,1.19c-1.21.93-2.25,1.6-3.12,1.99-.86.4-1.95.6-3.25.6-2.24,0-3.8-.56-4.69-1.68-.89-1.12-1.33-2.64-1.33-4.55-1.4,2.33-3.01,3.96-4.83,4.87-1.82.91-3.87,1.37-6.16,1.37-2.94,0-5.12-.74-6.54-2.21ZM192.01,153.75v-13.72c-.42.65-1,1.19-1.75,1.61-.75.42-1.89.98-3.43,1.68-1.77.75-3.21,1.46-4.3,2.13-1.1.68-2.04,1.6-2.83,2.76-.79,1.17-1.19,2.66-1.19,4.48,0,2.1.51,3.69,1.54,4.76,1.03,1.07,2.38,1.61,4.06,1.61,3.08,0,5.72-1.77,7.91-5.32Z"/>
      <path class="cls-3" d="M217.77,125.4h10.36v1.4h-10.36v27.09c0,2.1.38,3.62,1.16,4.55.77.93,1.88,1.4,3.33,1.4s2.68-.58,3.71-1.75c1.03-1.17,1.89-3.08,2.59-5.74l1.4.35c-1.17,6.44-4.2,9.66-9.1,9.66-1.59,0-2.89-.19-3.92-.56-1.03-.37-1.94-.96-2.73-1.75-1.03-1.03-1.74-2.29-2.14-3.78-.4-1.49-.59-3.5-.59-6.02v-23.45h-6.72v-1.4h6.72v-10.71c2.61-.09,4.71-.42,6.3-.98v11.69Z"/>
      <path class="cls-3" d="M277.93,129.25c2.45,3.27,3.67,7.98,3.67,14.14,0,4.06-.7,7.51-2.1,10.36-1.4,2.85-3.28,4.99-5.63,6.44-2.36,1.45-4.98,2.17-7.88,2.17-1.73,0-3.39-.35-5-1.05-1.61-.7-3.02-1.7-4.24-3.01l-4.97,4.2-1.19-.49c.33-1.17.49-2.52.49-4.06v-42.98c0-2.15-.4-3.71-1.19-4.69-.79-.98-2.17-1.47-4.13-1.47v-1.47c1.49.14,2.94.21,4.34.21,2.94,0,5.37-.33,7.28-.98v25.27c1.03-2.38,2.51-4.22,4.44-5.53,1.94-1.31,4.1-1.96,6.48-1.96,3.97,0,7.17,1.63,9.62,4.9ZM272.47,156.51c1.56-2.82,2.34-7.2,2.34-13.12s-.7-9.94-2.1-12.74c-1.4-2.8-3.55-4.2-6.44-4.2-1.96,0-3.76.76-5.39,2.27-1.63,1.52-2.8,3.65-3.5,6.41v22.19c1.07,1.12,2.31,1.97,3.71,2.55,1.4.58,2.85.88,4.34.88,3.13,0,5.47-1.41,7.04-4.24Z"/>
      <path class="cls-3" d="M313.28,125.96c1.19,1.07,1.79,2.38,1.79,3.92,0,1.21-.36,2.25-1.08,3.12-.72.86-1.69,1.29-2.91,1.29-1.03,0-1.9-.33-2.62-.98-.72-.65-1.08-1.54-1.08-2.66,0-1.54.79-2.8,2.38-3.78-.33-.47-.82-.7-1.47-.7-1.82,0-3.48.71-4.97,2.13-1.49,1.42-2.66,3.16-3.5,5.21-.84,2.05-1.26,3.99-1.26,5.81v14.84c0,2.15.62,3.64,1.85,4.48,1.24.84,3.09,1.26,5.57,1.26v1.47l-1.68-.07c-4.76-.14-7.79-.21-9.1-.21-1.21,0-3.97.09-8.26.28v-1.47c1.96,0,3.34-.36,4.13-1.08.79-.72,1.19-2.04,1.19-3.96v-21.91c0-2.15-.4-3.71-1.19-4.69-.79-.98-2.17-1.47-4.13-1.47v-1.47c1.49.14,2.94.21,4.34.21,2.94,0,5.37-.33,7.28-.98v8.75c.84-2.33,2.18-4.41,4.02-6.23,1.84-1.82,3.88-2.73,6.12-2.73,1.87,0,3.4.54,4.58,1.61Z"/>
      <path class="cls-3" d="M345.34,129.07c2.92,3.15,4.38,7.92,4.38,14.31s-1.46,11.15-4.38,14.28c-2.92,3.13-6.75,4.69-11.52,4.69s-8.6-1.56-11.51-4.69c-2.92-3.13-4.38-7.89-4.38-14.28s1.46-11.17,4.38-14.31c2.92-3.15,6.75-4.73,11.51-4.73s8.6,1.58,11.52,4.73ZM327.17,130.05c-1.63,2.87-2.45,7.32-2.45,13.33s.82,10.45,2.45,13.3c1.63,2.85,3.85,4.27,6.65,4.27s5.02-1.42,6.65-4.27c1.63-2.85,2.45-7.28,2.45-13.3s-.82-10.46-2.45-13.33c-1.63-2.87-3.85-4.3-6.65-4.3s-5.02,1.43-6.65,4.3Z"/>
      <path class="cls-3" d="M386.81,153.82c0,2.15.4,3.71,1.19,4.69.79.98,2.17,1.47,4.13,1.47v1.47c-1.45-.14-2.89-.21-4.34-.21-2.94,0-5.37.33-7.28.98v-8.26c-1.12,2.89-2.71,5.02-4.76,6.37-2.05,1.35-4.29,2.03-6.72,2.03-3.17,0-5.6-.89-7.28-2.66-.84-.93-1.43-2.12-1.79-3.57-.35-1.45-.52-3.31-.52-5.6v-17.57c0-2.15-.4-3.71-1.19-4.69-.79-.98-2.17-1.47-4.13-1.47v-1.47c1.45.14,2.89.21,4.34.21,2.94,0,5.37-.33,7.28-.98v27.51c0,1.77.1,3.21.31,4.3.21,1.1.7,2,1.47,2.7.77.7,1.95,1.05,3.53,1.05,1.77,0,3.38-.56,4.83-1.68,1.45-1.12,2.58-2.65,3.4-4.58.82-1.94,1.22-4.07,1.22-6.4v-14.49c0-2.15-.4-3.71-1.19-4.69-.79-.98-2.17-1.47-4.13-1.47v-1.47c1.45.14,2.89.21,4.34.21,2.94,0,5.37-.33,7.28-.98v29.26Z"/>
      <path class="cls-3" d="M424.51,130.79c-.58-.56-.88-1.38-.88-2.45,0-.93.23-2.01.7-3.22-1.21.51-2.17,1.08-2.87,1.71s-1.33,1.41-1.89,2.34c1.07,1.63,1.61,3.71,1.61,6.23,0,3.69-1.12,6.45-3.36,8.29-2.24,1.84-5.2,2.76-8.89,2.76h-.07c-1.54.89-2.71,1.7-3.5,2.45-.79.75-1.19,1.59-1.19,2.52,0,1.49,1.12,2.24,3.36,2.24h8.75c3.17,0,5.8.69,7.88,2.07,2.08,1.38,3.11,3.44,3.11,6.19,0,2.24-.72,4.32-2.17,6.23-1.45,1.91-3.57,3.45-6.37,4.62-2.8,1.17-6.18,1.75-10.15,1.75s-7.46-.62-10.19-1.86c-2.73-1.24-4.09-3.07-4.09-5.5,0-1.59.64-2.96,1.92-4.13,1.28-1.17,3.07-2.08,5.36-2.73l.42,1.12c-1.03.33-1.84.98-2.45,1.96-.61.98-.91,2.08-.91,3.29,0,2.15.97,3.79,2.91,4.94,1.94,1.14,4.54,1.71,7.8,1.71,3.59,0,6.67-.69,9.24-2.06,2.57-1.38,3.85-3.51,3.85-6.41,0-1.68-.59-2.99-1.78-3.92-1.19-.93-3.3-1.4-6.33-1.4h-5.18c-2.75,0-4.96-.35-6.61-1.05-1.66-.7-2.49-2.1-2.49-4.2,0-1.45.52-2.82,1.58-4.13,1.05-1.31,2.79-2.59,5.21-3.85-3.08-.33-5.54-1.4-7.38-3.22-1.84-1.82-2.77-4.39-2.77-7.7,0-3.69,1.12-6.45,3.36-8.29s5.2-2.77,8.89-2.77c4.39,0,7.63,1.21,9.73,3.64.89-1.26,2.01-2.3,3.36-3.12,1.35-.82,2.71-1.23,4.06-1.23,1.21,0,2.19.35,2.94,1.05.75.7,1.12,1.7,1.12,3.01s-.36,2.29-1.08,2.94c-.72.65-1.53.98-2.42.98-.84,0-1.55-.28-2.13-.84ZM413.17,143c.96-1.47,1.43-4,1.43-7.59s-.48-6.12-1.43-7.6c-.96-1.47-2.37-2.2-4.24-2.2s-3.28.73-4.23,2.2c-.96,1.47-1.44,4-1.44,7.6s.48,6.12,1.44,7.59c.96,1.47,2.37,2.21,4.23,2.21s3.28-.74,4.24-2.21Z"/>
      <path class="cls-3" d="M443.65,132.75c1.17-2.94,2.79-5.08,4.87-6.41,2.08-1.33,4.42-2,7.04-2,3.27,0,5.74.89,7.42,2.66.89.93,1.52,2.1,1.89,3.5.37,1.4.56,3.29.56,5.67v18.69c0,1.91.4,3.23,1.19,3.96.79.72,2.17,1.08,4.13,1.08v1.47c-4.29-.19-7.09-.28-8.4-.28s-3.92.09-7.84.28v-1.47c1.73,0,2.93-.36,3.6-1.08s1.02-2.04,1.02-3.96v-20.23c0-2.61-.37-4.61-1.12-5.98-.75-1.38-2.26-2.07-4.55-2.07-1.91,0-3.61.54-5.08,1.61-1.47,1.07-2.62,2.58-3.46,4.51-.84,1.94-1.26,4.12-1.26,6.54v15.61c0,1.91.34,3.23,1.02,3.96.68.72,1.88,1.08,3.6,1.08v1.47c-3.92-.19-6.53-.28-7.84-.28s-4.11.09-8.4.28v-1.47c1.96,0,3.34-.36,4.13-1.08.79-.72,1.19-2.04,1.19-3.96v-39.9c0-2.15-.4-3.71-1.19-4.69-.79-.98-2.17-1.47-4.13-1.47v-1.47c1.49.14,2.94.21,4.34.21,2.94,0,5.37-.33,7.28-.98v26.18Z"/>
      <path class="cls-3" d="M485.09,125.4h10.36v1.4h-10.36v27.09c0,2.1.38,3.62,1.16,4.55.77.93,1.88,1.4,3.33,1.4s2.68-.58,3.71-1.75c1.03-1.17,1.89-3.08,2.59-5.74l1.4.35c-1.17,6.44-4.2,9.66-9.1,9.66-1.59,0-2.89-.19-3.92-.56-1.03-.37-1.94-.96-2.73-1.75-1.03-1.03-1.74-2.29-2.14-3.78-.4-1.49-.59-3.5-.59-6.02v-23.45h-6.72v-1.4h6.72v-10.71c2.61-.09,4.71-.42,6.3-.98v11.69Z"/>
      <path class="cls-3" d="M545.57,125.33v1.4c-.93.09-1.76.51-2.49,1.26-.72.75-1.41,1.96-2.06,3.64l-11.48,30.1-2.38,6.09c-.89,2.29-1.89,3.92-3.01,4.9-.7.65-1.54,1.12-2.52,1.4-.98.28-1.96.42-2.94.42-1.4,0-2.54-.37-3.43-1.12-.89-.75-1.33-1.77-1.33-3.08,0-1.12.33-2.02.98-2.7.65-.68,1.56-1.01,2.73-1.01,1.03,0,1.88.29,2.55.88.68.58,1.01,1.39,1.01,2.42,0,1.4-.63,2.45-1.89,3.15.09.05.23.07.42.07,2.57,0,4.55-1.82,5.95-5.46l2.45-6.37-12.67-30.59c-.79-1.59-1.59-2.64-2.38-3.15-.79-.51-1.59-.77-2.38-.77v-1.47c2.01.28,4.29.42,6.86.42,2.33,0,5.37-.14,9.1-.42v1.47c-1.68,0-2.9.14-3.67.42-.77.28-1.16.96-1.16,2.03,0,.98.28,2.12.84,3.43l8.4,20.86,7.77-20.23c.51-1.4.77-2.47.77-3.22,0-1.07-.42-1.87-1.26-2.38-.84-.51-2.17-.84-3.99-.98v-1.4c2.47.14,4.43.21,5.88.21,2.05,0,3.83-.07,5.32-.21Z"/>
      <path class="cls-3" d="M576.34,129.07c2.92,3.15,4.38,7.92,4.38,14.31s-1.46,11.15-4.38,14.28c-2.92,3.13-6.75,4.69-11.52,4.69s-8.6-1.56-11.51-4.69c-2.92-3.13-4.38-7.89-4.38-14.28s1.46-11.17,4.38-14.31c2.92-3.15,6.75-4.73,11.51-4.73s8.6,1.58,11.52,4.73ZM558.17,130.05c-1.63,2.87-2.45,7.32-2.45,13.33s.82,10.45,2.45,13.3c1.63,2.85,3.85,4.27,6.65,4.27s5.02-1.42,6.65-4.27c1.63-2.85,2.45-7.28,2.45-13.3s-.82-10.46-2.45-13.33c-1.63-2.87-3.85-4.3-6.65-4.3s-5.02,1.43-6.65,4.3Z"/>
      <path class="cls-3" d="M617.81,153.82c0,2.15.4,3.71,1.19,4.69.79.98,2.17,1.47,4.13,1.47v1.47c-1.45-.14-2.89-.21-4.34-.21-2.94,0-5.37.33-7.28.98v-8.26c-1.12,2.89-2.71,5.02-4.76,6.37-2.05,1.35-4.29,2.03-6.72,2.03-3.17,0-5.6-.89-7.28-2.66-.84-.93-1.43-2.12-1.79-3.57-.35-1.45-.52-3.31-.52-5.6v-17.57c0-2.15-.4-3.71-1.19-4.69-.79-.98-2.17-1.47-4.13-1.47v-1.47c1.45.14,2.89.21,4.34.21,2.94,0,5.37-.33,7.28-.98v27.51c0,1.77.1,3.21.31,4.3.21,1.1.7,2,1.47,2.7.77.7,1.95,1.05,3.53,1.05,1.77,0,3.38-.56,4.83-1.68,1.45-1.12,2.58-2.65,3.4-4.58.82-1.94,1.22-4.07,1.22-6.4v-14.49c0-2.15-.4-3.71-1.19-4.69-.79-.98-2.17-1.47-4.13-1.47v-1.47c1.45.14,2.89.21,4.34.21,2.94,0,5.37-.33,7.28-.98v29.26Z"/>
    </g>
  </g>
</svg>