<?xml version="1.0" encoding="UTF-8"?>
<svg id="Layer_2" data-name="Layer 2" xmlns="http://www.w3.org/2000/svg" viewBox="0 0 144.16 144.16">
  <defs>
    <style>
      .cls-1 {
        font-family: ChalkboardSE-Light, 'Chalkboard SE';
        font-size: 39.29px;
        font-weight: 300;
      }

      .cls-1, .cls-2 {
        fill: #8fcc92;
      }

      .cls-2 {
        stroke-width: 0px;
      }

      .cls-3 {
        letter-spacing: 0em;
      }

      .cls-4 {
        letter-spacing: -.04em;
      }
    </style>
  </defs>
  <g id="Layer_1-2" data-name="Layer 1">
    <text class="cls-1" transform="translate(39.44 103.39)"><tspan class="cls-4" x="0" y="0">y</tspan><tspan class="cls-3" x="19.58" y="0">a</tspan><tspan x="40.68" y="0">p</tspan></text>
    <path class="cls-2" d="M140.2,39.98c-2.02-2-4.56-3.29-7.3-3.76v-13.7c0-.88-.52-1.69-1.32-2.05-.8-.37-1.75-.23-2.41.35l-17.38,15.21h-26.19v-6.76c0-7.46-6.06-13.52-13.52-13.52h-39.7S15,.56,15,.56c-.66-.58-1.61-.72-2.41-.35-.81.37-1.32,1.17-1.32,2.05v13.7c-2.75.46-5.28,1.76-7.32,3.77-2.55,2.57-3.94,5.96-3.94,9.56v38.29c0,7.46,6.06,13.52,13.52,13.52h13.52v33.79c0,6.68,4.88,12.25,11.26,13.33v13.7c0,.88.66,2.25,2.25,2.25.53,0,1.06-.19,1.48-.56l17.38-15.21h39.7c7.46,0,13.52-6.06,13.52-13.52v-15.77h18.02c7.46,0,13.52-6.06,13.52-13.52v-36.04c0-3.59-1.4-6.99-3.96-9.57h0ZM27.23,76.59h-13.72c-4.97,0-9.01-4.04-9.01-9.01V29.28c0-2.4.93-4.67,2.62-6.37,1.72-1.7,3.99-2.64,6.39-2.64,1.24,0,2.25-1.01,2.25-2.25V7.22l14.29,12.5c.41.36.93.56,1.48.56h40.55c4.97,0,9.01,4.04,9.01,9.01v6.76h-9.01c-7.46,0-13.52,6.06-13.52,13.52v15.77h-18.02c-6.68,0-12.23,4.88-13.31,11.26h0ZM108.12,114.88c0,4.97-4.04,9.01-9.01,9.01h-40.55c-.55,0-1.08.2-1.48.56l-14.29,12.5v-10.8c0-1.24-1.01-2.25-2.25-2.25-4.97,0-9.01-4.04-9.01-9.01v-36.04c0-4.97,4.04-9.01,9.01-9.01h58.57c4.97,0,9.01,4.04,9.01,9.01v36.04h0Z"/>
  </g>
</svg>